<svg width="1600" height="720" viewBox="0 0 1600 720" fill="none" xmlns="http://www.w3.org/2000/svg">
  <rect width="1600" height="720" fill="#101116"/>
  <circle cx="1260" cy="130" r="300" fill="#D63B3B" fill-opacity="0.16"/>
  <circle cx="1450" cy="590" r="250" fill="#D63B3B" fill-opacity="0.1"/>
  <path d="M0 570C240 480 380 620 610 530C850 436 1010 500 1230 390C1390 310 1490 350 1600 290V720H0V570Z" fill="#171A22"/>
  <g opacity="0.2" stroke="#F46B6B">
    <path d="M0 120H1600M0 220H1600M0 320H1600M0 420H1600M0 520H1600M0 620H1600"/>
    <path d="M120 0V720M320 0V720M520 0V720M720 0V720M920 0V720M1120 0V720M1320 0V720M1520 0V720"/>
  </g>
  <g transform="translate(890 130)">
    <rect x="0" y="0" width="500" height="310" rx="22" fill="#20242E" stroke="#F46B6B" stroke-opacity="0.42" stroke-width="2"/>
    <rect x="25" y="25" width="450" height="240" rx="12" fill="#11141A"/>
    <circle cx="48" cy="48" r="5" fill="#F46B6B"/><circle cx="67" cy="48" r="5" fill="#F1B36B"/><circle cx="86" cy="48" r="5" fill="#8CD3A6"/>
    <path d="M58 102L90 125L58 148M112 148H205" stroke="#F46B6B" stroke-width="8" stroke-linecap="round" stroke-linejoin="round"/>
    <path d="M58 188H390M58 218H300" stroke="#596171" stroke-width="8" stroke-linecap="round"/>
    <path d="M58 248H220" stroke="#D63B3B" stroke-width="8" stroke-linecap="round"/>
    <rect x="160" y="328" width="180" height="16" rx="8" fill="#303541"/>
    <path d="M80 360H420L470 410H30L80 360Z" fill="#20242E" stroke="#F46B6B" stroke-opacity="0.3" stroke-width="2"/>
  </g>
  <g transform="translate(680 500)">
    <rect width="140" height="92" rx="16" fill="#D63B3B" fill-opacity="0.88"/>
    <path d="M35 48H105M70 18V78" stroke="white" stroke-width="8" stroke-linecap="round"/>
  </g>
</svg>
